<svg width="131" height="131" viewBox="0 0 131 131" fill="none" xmlns="http://www.w3.org/2000/svg">
<path d="M10.625 130.25C7.79167 130.25 5.35417 129.229 3.3125 127.188C1.27083 125.188 0.25 122.792 0.25 120V10.5625C0.25 7.72917 1.27083 5.3125 3.3125 3.3125C5.35417 1.27083 7.77083 0.25 10.5625 0.25H119.938C122.771 0.25 125.188 1.27083 127.188 3.3125C129.229 5.3125 130.25 7.72917 130.25 10.5625V119.938C130.25 122.729 129.229 125.146 127.188 127.188C125.188 129.229 122.771 130.25 119.938 130.25H10.625ZM30.0625 129L26.4375 125.5C32.8125 119.083 39.9792 114.188 47.9375 110.812C55.8958 107.479 64.6667 105.646 74.25 105.312C79 100.604 83.9167 96.8333 89 94C94.125 91.1667 99.8125 89.125 106.062 87.875C112.354 86.5833 119.625 85.9375 127.875 85.9375V90.9375C119.833 90.9375 112.854 91.5417 106.938 92.75C101.062 93.9583 95.7083 95.9792 90.875 98.8125C86.0833 101.604 81.2917 105.417 76.5 110.25C66.7917 110.5 58.125 112.167 50.5 115.25C42.875 118.333 36.0625 122.917 30.0625 129ZM10.625 125.25H119.938C121.396 125.25 122.646 124.708 123.688 123.625C124.729 122.583 125.25 121.354 125.25 119.938V10.5625C125.25 9.10417 124.729 7.85417 123.688 6.8125C122.646 5.77083 121.396 5.25 119.938 5.25H10.5625C9.14583 5.25 7.89583 5.77083 6.8125 6.8125C5.77083 7.85417 5.25 9.10417 5.25 10.5625V120C5.25 121.417 5.77083 122.646 6.8125 123.688C7.89583 124.729 9.16667 125.25 10.625 125.25ZM126.188 83.125C122.146 80.7083 118.021 78.9583 113.812 77.875C109.646 76.75 105.396 76.1875 101.062 76.1875C98.8542 76.1875 96.5625 76.3333 94.1875 76.625C91.8542 76.9167 89.1875 77.375 86.1875 78C83.8125 73.375 80.6667 69.5 76.75 66.375C72.8333 63.2083 68.5 60.8125 63.75 59.1875C59 57.5625 54.125 56.75 49.125 56.75C41.5833 56.75 34.5833 58.8125 28.125 62.9375C24.7083 58.5208 20.9167 54.9792 16.75 52.3125C12.625 49.6042 7.91667 47.6667 2.625 46.5L3.75 41.625C13.9167 43.875 22.4167 48.8542 29.25 56.5625C35.4167 53.3542 42.0417 51.75 49.125 51.75C54.5 51.75 59.6667 52.5625 64.625 54.1875C69.625 55.7708 74.1458 58.1042 78.1875 61.1875C82.2708 64.2708 85.6042 68.0625 88.1875 72.5625C90.2708 72.1042 92.4167 71.7708 94.625 71.5625C96.875 71.3125 99.0208 71.1875 101.062 71.1875C105.979 71.1875 110.708 71.8125 115.25 73.0625C119.792 74.2708 124.271 76.1667 128.688 78.75L126.188 83.125ZM25 54.375L20.125 53.125C21.75 47.625 24.4167 42.8542 28.125 38.8125C31.8333 34.7292 36.2917 31.5833 41.5 29.375C46.75 27.1667 52.4583 26.0625 58.625 26.0625C62.2083 26.0625 65.7292 26.4583 69.1875 27.25C72.9375 22.875 77.75 19.4583 83.625 17C89.5 14.5 95.75 13.25 102.375 13.25C107.5 13.25 112.375 14.0833 117 15.75C121.667 17.375 125.792 19.8333 129.375 23.125L126 26.875C122.833 24 119.25 21.8542 115.25 20.4375C111.25 18.9792 106.958 18.25 102.375 18.25C95.8333 18.25 89.75 19.5625 84.125 22.1875C78.5417 24.8125 74.2083 28.3958 71.125 32.9375C66.9583 31.6875 62.7917 31.0625 58.625 31.0625C53.2083 31.0625 48.2083 32.0208 43.625 33.9375C39.0833 35.8125 35.1875 38.5 31.9375 42C28.7292 45.5 26.4167 49.625 25 54.375ZM86.1875 19.875C83.4375 18.4583 80.5833 17.4167 77.625 16.75C74.7083 16.0417 71.625 15.6875 68.375 15.6875C62.8333 15.6875 56.8958 16.6875 50.5625 18.6875C49.4792 15.9375 47.7292 13.2708 45.3125 10.6875C42.8958 8.0625 40.4167 6.16667 37.875 5L39.75 0.375C42.2083 1.45833 44.625 3.125 47 5.375C49.4167 7.58333 51.4583 10.0417 53.125 12.75C58.4583 11.375 63.5417 10.6875 68.375 10.6875C71.9583 10.6875 75.4375 11.0833 78.8125 11.875C82.1875 12.6667 85.3958 13.8333 88.4375 15.375L86.1875 19.875Z" fill="white"/>
</svg>
